<?xml version="1.0" encoding="utf-8"?>
<!-- Generator: Adobe Illustrator 16.0.0, SVG Export Plug-In . SVG Version: 6.00 Build 0)  -->
<!DOCTYPE svg PUBLIC "-//W3C//DTD SVG 1.1//EN" "http://www.w3.org/Graphics/SVG/1.1/DTD/svg11.dtd">
<svg version="1.1" id="Layer_1" xmlns="http://www.w3.org/2000/svg" xmlns:xlink="http://www.w3.org/1999/xlink" x="0px" y="0px"
	 width="57.401px" height="59.328px" viewBox="0 0 57.401 59.328" enable-background="new 0 0 57.401 59.328" xml:space="preserve">
<g opacity="0.8">
	<path fill="none" d="M-0.057,0.168C19.038,0.112,38.133,0.056,57.227,0c0.058,19.719,0.116,39.439,0.174,59.16
		c-19.095,0.056-38.19,0.111-57.284,0.168C0.058,39.608,0,19.888-0.057,0.168z M4.46,53.371c0.675-0.176,1.141-0.271,1.587-0.416
		c3.471-1.133,6.949-2.251,10.404-3.434c0.939-0.321,1.724-0.33,2.653,0.131c4.515,2.24,9.279,2.873,14.265,2.143
		c10.945-1.607,19.869-11.181,20.656-22.234c1.084-15.219-11.088-27.555-26.2-26.556C11.93,4.057,1.027,20.521,6.723,35.525
		c1.508,3.964,1.66,7.234-0.018,10.91c-0.758,1.66-1.187,3.472-1.754,5.219C4.79,52.152,4.663,52.66,4.46,53.371z"/>
	<path fill-rule="evenodd" clip-rule="evenodd" fill="#A51E22" d="M4.46,53.371c0.202-0.711,0.329-1.219,0.491-1.717
		c0.567-1.747,0.996-3.559,1.754-5.219c1.678-3.676,1.525-6.946,0.018-10.91C1.027,20.521,11.93,4.057,27.826,3.005
		c15.112-0.999,27.284,11.337,26.2,26.556c-0.787,11.053-9.711,20.626-20.656,22.234c-4.985,0.73-9.75,0.098-14.265-2.143
		c-0.93-0.461-1.714-0.452-2.653-0.131c-3.455,1.183-6.934,2.301-10.404,3.434C5.601,53.1,5.135,53.195,4.46,53.371z M10.627,47.202
		c2.395-0.767,4.504-1.391,6.573-2.128c0.919-0.328,1.641-0.228,2.483,0.25c5.537,3.148,11.33,3.557,17.252,1.308
		c9.896-3.76,15.239-14.677,12.28-24.917c-2.9-10.042-13.192-16.37-23.415-14.397C11.666,10.044,4.737,26.361,12.474,38.609
		c0.352,0.556,0.44,1.487,0.261,2.135C12.167,42.822,11.413,44.849,10.627,47.202z"/>
</g>
<rect x="16.686" y="22.062" fill="none" width="34.585" height="24.623"/>
<text transform="matrix(1 0 0 1 16.6851 32.7188)" font-family="'Helvetica'" font-size="14.8222">Call</text>
</svg>
