<?xml version="1.0" encoding="utf-8"?>
<!-- Generator: Adobe Illustrator 16.0.0, SVG Export Plug-In . SVG Version: 6.00 Build 0)  -->
<!DOCTYPE svg PUBLIC "-//W3C//DTD SVG 1.1//EN" "http://www.w3.org/Graphics/SVG/1.1/DTD/svg11.dtd">
<svg version="1.1" id="Layer_1" xmlns="http://www.w3.org/2000/svg" xmlns:xlink="http://www.w3.org/1999/xlink" x="0px" y="0px"
	 width="80px" height="80px" viewBox="0 0 80 80" enable-background="new 0 0 80 80" xml:space="preserve">
<circle fill="#FFFFFF" cx="39.689" cy="69.692" r="2.25"/>
<circle fill="#A51E22" cx="38.939" cy="41.483" r="11"/>
<path fill="none" stroke="#000000" stroke-width="5" stroke-miterlimit="10" d="M49.078,24.24"/>
<path fill="none" stroke="#000000" stroke-width="5" stroke-miterlimit="10" d="M27.216,25.277"/>
<path fill="none" stroke="#A51E22" stroke-width="5" stroke-miterlimit="10" d="M28.07,58.275
	c-5.496-3.564-9.131-9.753-9.131-16.792c0-6.667,3.262-12.572,8.276-16.206"/>
<path fill="none" stroke="#A51E22" stroke-width="5" stroke-miterlimit="10" d="M50.939,58.275
	c5.496-3.564,9.131-9.753,9.131-16.792c0-6.667-3.262-12.572-8.276-16.206"/>
<path fill="none" stroke="#A51E22" stroke-width="5" stroke-miterlimit="10" d="M19.573,66.959
	C11.896,61.114,6.939,51.878,6.939,41.483c0-10.271,4.839-19.412,12.361-25.268"/>
<path fill="none" stroke="#A51E22" stroke-width="5" stroke-miterlimit="10" d="M59.938,66.959
	c7.678-5.845,12.634-15.081,12.634-25.476c0-10.271-4.839-19.412-12.361-25.268"/>
<path fill="none" stroke="#A51E22" stroke-width="5" stroke-miterlimit="10" d="M58.307,16.008"/>
<path fill="none" stroke="#A51E22" stroke-width="5" stroke-miterlimit="10" d="M19.301,16.216"/>
</svg>
