<?xml version="1.0" encoding="utf-8"?>
<!-- Generator: Adobe Illustrator 16.0.0, SVG Export Plug-In . SVG Version: 6.00 Build 0)  -->
<!DOCTYPE svg PUBLIC "-//W3C//DTD SVG 1.1//EN" "http://www.w3.org/Graphics/SVG/1.1/DTD/svg11.dtd">
<svg version="1.1" id="Layer_1" xmlns="http://www.w3.org/2000/svg" xmlns:xlink="http://www.w3.org/1999/xlink" x="0px" y="0px"
	 width="350px" height="60px" viewBox="0 0 350 60" enable-background="new 0 0 350 60" xml:space="preserve">
<path fill="#282829" d="M48.045,51.58c0,0.945-0.767,1.712-1.711,1.712H2.705c-0.945,0-1.712-0.767-1.712-1.712V7.951
	c0-0.944,0.767-1.71,1.712-1.71h43.629c0.944,0,1.711,0.767,1.711,1.71V51.58z"/>
<path fill="#FFFFFF" d="M40.874,46.863c-0.042,0.695-0.64,1.225-1.335,1.184L7.422,46.12c-0.697-0.042-1.226-0.641-1.184-1.336
	l1.926-32.116c0.042-0.696,0.64-1.226,1.335-1.184l32.117,1.927c0.696,0.042,1.225,0.64,1.183,1.335L40.874,46.863z"/>
<path fill="#A41E22" d="M27.864,42.264c0.042,0.286-0.158,0.553-0.446,0.596l-13.263,1.918c-0.287,0.042-0.554-0.158-0.595-0.445
	L11.642,31.07c-0.042-0.289,0.158-0.555,0.446-0.596l13.263-1.919c0.286-0.041,0.553,0.157,0.595,0.445L27.864,42.264z"/>
<g>
	<path fill="#282829" d="M93.799,17.118c-0.108,0.109-0.473,0.481-1.089,1.116c-0.617,0.636-1.289,1.327-2.015,2.07
		c-0.728,0.745-1.408,1.453-2.042,2.125c-0.636,0.672-1.044,1.098-1.225,1.28c-0.327-0.326-0.718-0.698-1.172-1.116
		c-0.455-0.417-0.98-0.817-1.579-1.199c-0.6-0.381-1.29-0.708-2.07-0.979s-1.699-0.409-2.75-0.409c-1.343,0-2.605,0.264-3.785,0.79
		c-1.181,0.526-2.214,1.235-3.104,2.124c-0.89,0.89-1.598,1.943-2.123,3.159c-0.528,1.217-0.791,2.514-0.791,3.894
		c0,1.307,0.254,2.56,0.763,3.759c0.507,1.197,1.207,2.25,2.097,3.157c0.889,0.908,1.924,1.634,3.104,2.18
		c1.181,0.544,2.459,0.816,3.84,0.816c1.597,0,3.059-0.39,4.384-1.171c1.324-0.78,2.442-1.733,3.35-2.859
		c0.144,0.146,0.526,0.535,1.143,1.171c0.616,0.637,1.289,1.316,2.015,2.043c0.727,0.727,1.397,1.407,2.015,2.043
		c0.618,0.635,0.998,1.025,1.144,1.17c-0.617,0.69-1.389,1.426-2.314,2.205c-0.926,0.781-1.979,1.508-3.159,2.179
		c-1.18,0.673-2.488,1.226-3.921,1.662c-1.434,0.435-2.987,0.653-4.657,0.653c-2.578,0-5.019-0.473-7.325-1.416
		c-2.307-0.945-4.34-2.261-6.099-3.949c-1.763-1.688-3.159-3.693-4.194-6.018c-1.036-2.323-1.552-4.865-1.552-7.625
		c0-2.723,0.507-5.246,1.525-7.57c1.016-2.323,2.396-4.338,4.14-6.045c1.742-1.706,3.775-3.041,6.099-4.003
		c2.323-0.961,4.792-1.443,7.406-1.443c1.707,0,3.277,0.2,4.711,0.599c1.434,0.4,2.724,0.908,3.867,1.524
		c1.144,0.618,2.159,1.289,3.05,2.015C92.374,15.774,93.146,16.464,93.799,17.118z"/>
	<path fill="#282829" d="M97.938,11.78h9.312v23.147c0,0.617,0.117,1.207,0.353,1.771c0.235,0.562,0.567,1.072,1.001,1.524
		c0.434,0.454,0.949,0.817,1.544,1.09c0.596,0.271,1.273,0.408,2.031,0.408c1.371,0,2.538-0.454,3.493-1.361
		c0.957-0.908,1.436-2.052,1.436-3.432V11.78h9.204v22.493c0,2.034-0.364,3.932-1.089,5.692c-0.727,1.762-1.725,3.295-2.995,4.603
		c-1.271,1.307-2.759,2.333-4.466,3.076c-1.708,0.743-3.559,1.116-5.557,1.116c-2.033,0-3.912-0.363-5.636-1.089
		s-3.232-1.733-4.52-3.022c-1.29-1.289-2.297-2.822-3.023-4.602c-0.727-1.779-1.089-3.704-1.089-5.774V11.78z"/>
	<path fill="#282829" d="M145.266,48.979c-1.851,0-3.548-0.31-5.092-0.927c-1.543-0.616-2.905-1.442-4.084-2.479
		c-1.181-1.033-2.161-2.214-2.94-3.54c-0.781-1.323-1.334-2.676-1.661-4.057c0.253-0.036,0.789-0.145,1.606-0.327
		c0.816-0.181,1.698-0.373,2.642-0.571c0.943-0.199,1.833-0.391,2.668-0.571c0.835-0.182,1.397-0.31,1.688-0.382
		c0.436,1.307,1.144,2.352,2.124,3.132c0.98,0.78,2.142,1.171,3.486,1.171c1.38,0,2.497-0.4,3.35-1.198
		c0.853-0.799,1.389-1.888,1.606-3.268c-0.146-0.036-0.681-0.237-1.606-0.6c-0.925-0.362-2.051-0.798-3.376-1.307
		c-1.327-0.509-2.759-1.053-4.303-1.634c-1.544-0.58-2.996-1.125-4.358-1.635c-1.361-0.508-2.55-0.953-3.566-1.334
		c-1.017-0.381-1.652-0.626-1.907-0.736c-0.037-0.361-0.073-0.834-0.108-1.415c-0.038-0.581-0.055-1.162-0.055-1.743
		c0-1.997,0.354-3.886,1.062-5.664c0.708-1.779,1.697-3.331,2.968-4.657c1.271-1.325,2.778-2.377,4.521-3.159
		c1.743-0.78,3.667-1.17,5.773-1.17c1.852,0,3.558,0.3,5.12,0.899c1.561,0.599,2.95,1.407,4.167,2.423
		c1.216,1.018,2.234,2.198,3.051,3.541c0.816,1.344,1.389,2.778,1.714,4.303c-0.326,0.073-0.879,0.2-1.661,0.381
		c-0.781,0.182-1.625,0.363-2.533,0.544c-0.908,0.182-1.779,0.363-2.613,0.545c-0.837,0.182-1.436,0.308-1.798,0.381
		c-0.292-1.307-0.891-2.377-1.796-3.213c-0.908-0.835-2.053-1.253-3.432-1.253c-1.49,0-2.688,0.391-3.595,1.171
		c-0.909,0.782-1.453,1.735-1.635,2.86c0.219,0.072,0.817,0.299,1.799,0.68c0.979,0.381,2.141,0.826,3.483,1.334
		c1.344,0.508,2.779,1.054,4.304,1.634c1.525,0.582,2.949,1.126,4.276,1.634c1.324,0.509,2.451,0.944,3.376,1.307
		c0.927,0.364,1.462,0.563,1.606,0.6c0.073,0.399,0.146,0.999,0.218,1.797c0.072,0.798,0.109,1.579,0.109,2.341
		c0,2.035-0.363,3.912-1.088,5.639c-0.728,1.724-1.744,3.213-3.051,4.465s-2.851,2.242-4.629,2.968
		C149.313,48.615,147.371,48.979,145.266,48.979z"/>
	<path fill="#282829" d="M170.591,48.105V20.767h-8.877v-8.932h27.121v8.932h-8.877v27.339H170.591z"/>
	<path fill="#282829" d="M209.858,48.979c-2.652,0-5.129-0.5-7.436-1.498c-2.305-0.998-4.322-2.351-6.045-4.058
		c-1.725-1.707-3.086-3.721-4.084-6.046c-0.998-2.322-1.498-4.792-1.498-7.406c0-2.651,0.5-5.128,1.498-7.434
		c0.998-2.306,2.352-4.321,4.057-6.045c1.707-1.724,3.721-3.086,6.047-4.084c2.322-0.999,4.791-1.498,7.406-1.498
		c2.65,0,5.127,0.5,7.434,1.498s4.32,2.36,6.045,4.084c1.723,1.725,3.088,3.74,4.084,6.045c1,2.306,1.5,4.783,1.5,7.434
		c0,2.614-0.5,5.084-1.5,7.406c-0.996,2.325-2.35,4.339-4.057,6.046c-1.709,1.707-3.723,3.06-6.045,4.058
		C214.94,48.479,212.472,48.979,209.858,48.979z M209.804,19.95c-1.389,0-2.674,0.263-3.861,0.789
		c-1.188,0.527-2.219,1.235-3.096,2.124c-0.875,0.891-1.57,1.943-2.08,3.159c-0.51,1.218-0.766,2.533-0.766,3.949
		s0.256,2.723,0.766,3.921s1.205,2.252,2.08,3.159c0.877,0.908,1.918,1.615,3.123,2.125c1.203,0.509,2.5,0.762,3.889,0.762
		c1.387,0,2.684-0.253,3.889-0.762c1.203-0.51,2.242-1.217,3.121-2.125c0.875-0.907,1.561-1.961,2.053-3.159
		c0.494-1.198,0.74-2.505,0.74-3.921s-0.256-2.731-0.768-3.949c-0.512-1.216-1.205-2.268-2.082-3.159
		c-0.875-0.889-1.914-1.597-3.119-2.124C212.487,20.213,211.19,19.95,209.804,19.95z"/>
	<path fill="#282829" d="M234.257,48.105V11.181c0.398,0.255,1.07,0.69,2.014,1.308c0.945,0.617,2.006,1.316,3.188,2.096
		c1.178,0.782,2.414,1.599,3.703,2.452c1.287,0.854,2.504,1.66,3.648,2.423c1.143,0.763,2.133,1.425,2.969,1.988
		c0.834,0.564,1.396,0.936,1.688,1.117c0.291-0.218,0.873-0.608,1.744-1.172c0.871-0.562,1.896-1.234,3.076-2.014
		c1.18-0.781,2.432-1.607,3.758-2.478c1.326-0.872,2.586-1.689,3.785-2.451c1.197-0.763,2.24-1.443,3.131-2.042
		c0.889-0.599,1.496-1.008,1.824-1.226v36.925h-9.094V28.609c-0.328,0.218-0.893,0.582-1.689,1.088
		c-0.801,0.509-1.633,1.035-2.506,1.58c-0.871,0.545-1.697,1.062-2.477,1.553c-0.783,0.49-1.299,0.808-1.553,0.952
		c-0.291-0.181-0.816-0.517-1.58-1.007c-0.762-0.489-1.578-1.008-2.449-1.553c-0.873-0.543-1.697-1.061-2.479-1.551
		s-1.334-0.844-1.66-1.062v19.496H234.257z"/>
	<path fill="#282829" d="M296.397,48.105h-20.26V11.78h19.986c2.469,0,4.639,0.891,6.508,2.669c1.871,1.779,2.807,3.885,2.807,6.317
		c0,3.45-1.379,5.936-4.139,7.461c1.342,0.544,2.561,1.489,3.648,2.833c1.488,1.851,2.232,4.029,2.232,6.535
		c0,2.905-1.055,5.383-3.158,7.435C301.917,47.082,299.374,48.105,296.397,48.105z M295.472,27.139c1.635,0,3.012-0.58,4.139-1.743
		c1.125-1.162,1.689-2.541,1.689-4.139c0-1.562-0.572-2.904-1.717-4.03c-1.143-1.125-2.477-1.689-4.004-1.689H279.95v11.601H295.472
		z M296.343,44.294c1.814,0,3.377-0.681,4.686-2.042c1.305-1.362,1.959-2.969,1.959-4.82c0-1.888-0.654-3.485-1.959-4.793
		c-1.309-1.307-2.998-1.959-5.066-1.959H279.95v13.615H296.343z"/>
	<path fill="#282829" d="M312.79,48.105V11.78h3.867v36.326H312.79z"/>
	<path fill="#282829" d="M349.007,15.538h-11.654v32.568h-3.922V15.538h-12.254V11.78h27.83V15.538z"/>
</g>
</svg>
