<?xml version="1.0" encoding="utf-8"?>
<!-- Generator: Adobe Illustrator 16.0.0, SVG Export Plug-In . SVG Version: 6.00 Build 0)  -->
<!DOCTYPE svg PUBLIC "-//W3C//DTD SVG 1.1//EN" "http://www.w3.org/Graphics/SVG/1.1/DTD/svg11.dtd">
<svg version="1.1" id="Layer_1" xmlns="http://www.w3.org/2000/svg" xmlns:xlink="http://www.w3.org/1999/xlink" x="0px" y="0px"
	 width="350px" height="60px" viewBox="0 0 350 60" enable-background="new 0 0 350 60" xml:space="preserve">
<rect x="61.726" y="12.627" fill="none" width="285.502" height="39.299"/>
<g enable-background="new    ">
	<path fill="#383839" d="M96.478,17.904c-0.107,0.107-0.462,0.472-1.067,1.094s-1.262,1.298-1.973,2.025
		c-0.711,0.729-1.378,1.423-2,2.08c-0.623,0.658-1.022,1.075-1.2,1.253c-0.32-0.32-0.702-0.684-1.146-1.093
		c-0.445-0.408-0.959-0.8-1.546-1.173c-0.586-0.374-1.262-0.693-2.026-0.96c-0.765-0.267-1.662-0.4-2.693-0.4
		c-1.315,0-2.551,0.259-3.706,0.773c-1.156,0.516-2.169,1.209-3.04,2.079c-0.872,0.872-1.564,1.902-2.08,3.093
		c-0.516,1.191-0.773,2.462-0.773,3.812c0,1.279,0.248,2.506,0.747,3.679c0.497,1.174,1.181,2.205,2.053,3.093
		c0.871,0.89,1.884,1.6,3.039,2.133c1.155,0.533,2.408,0.8,3.759,0.8c1.564,0,2.994-0.381,4.292-1.146
		c1.297-0.764,2.39-1.696,3.279-2.799c0.142,0.143,0.515,0.524,1.12,1.146c0.604,0.622,1.261,1.289,1.973,1.999
		c0.711,0.712,1.368,1.378,1.973,2c0.604,0.622,0.977,1.005,1.12,1.146c-0.605,0.676-1.36,1.396-2.266,2.159
		c-0.907,0.765-1.938,1.476-3.093,2.133c-1.155,0.658-2.435,1.2-3.839,1.626c-1.405,0.427-2.924,0.641-4.559,0.641
		c-2.524,0-4.915-0.463-7.171-1.387c-2.258-0.924-4.249-2.213-5.972-3.866c-1.725-1.652-3.093-3.616-4.105-5.892
		c-1.013-2.274-1.52-4.763-1.52-7.465c0-2.666,0.498-5.136,1.493-7.411c0.995-2.274,2.346-4.248,4.052-5.919
		c1.707-1.671,3.697-2.977,5.972-3.919c2.274-0.941,4.692-1.413,7.251-1.413c1.67,0,3.208,0.195,4.612,0.587
		c1.404,0.392,2.666,0.889,3.786,1.492c1.12,0.605,2.115,1.263,2.986,1.974S95.837,17.265,96.478,17.904z"/>
	<path fill="#383839" d="M100.529,12.68h9.118v22.661c0,0.604,0.114,1.182,0.344,1.732c0.23,0.552,0.557,1.049,0.981,1.493
		c0.424,0.445,0.928,0.8,1.512,1.066c0.583,0.267,1.245,0.4,1.988,0.4c1.343,0,2.484-0.444,3.42-1.333s1.405-2.009,1.405-3.359
		V12.68h9.011V34.7c0,1.991-0.356,3.849-1.066,5.572c-0.711,1.725-1.689,3.227-2.933,4.506c-1.245,1.279-2.702,2.284-4.372,3.013
		c-1.671,0.729-3.484,1.093-5.439,1.093c-1.991,0-3.831-0.355-5.519-1.066c-1.689-0.711-3.165-1.697-4.426-2.959
		c-1.262-1.262-2.249-2.764-2.959-4.506c-0.711-1.741-1.066-3.626-1.066-5.652V12.68z"/>
	<path fill="#383839" d="M146.865,49.098c-1.813,0-3.475-0.303-4.985-0.907c-1.511-0.604-2.844-1.413-3.999-2.426
		c-1.156-1.013-2.115-2.168-2.879-3.466c-0.765-1.297-1.306-2.621-1.626-3.973c0.249-0.035,0.773-0.142,1.573-0.319
		s1.661-0.364,2.586-0.561c0.924-0.194,1.794-0.381,2.613-0.56c0.817-0.178,1.368-0.302,1.653-0.373
		c0.427,1.279,1.12,2.302,2.08,3.065c0.96,0.766,2.097,1.146,3.413,1.146c1.351,0,2.443-0.391,3.279-1.173
		c0.834-0.781,1.359-1.848,1.573-3.199c-0.143-0.035-0.667-0.23-1.573-0.586c-0.907-0.355-2.009-0.782-3.306-1.28
		c-1.298-0.497-2.702-1.03-4.212-1.6c-1.511-0.568-2.933-1.102-4.266-1.6c-1.333-0.497-2.498-0.933-3.492-1.307
		c-0.996-0.373-1.618-0.613-1.866-0.72c-0.036-0.354-0.072-0.817-0.107-1.386c-0.036-0.568-0.053-1.138-0.053-1.707
		c0-1.954,0.347-3.803,1.04-5.545c0.693-1.741,1.662-3.261,2.906-4.559c1.244-1.298,2.719-2.328,4.426-3.093
		c1.706-0.764,3.59-1.146,5.652-1.146c1.813,0,3.483,0.293,5.012,0.88c1.528,0.586,2.888,1.378,4.079,2.373
		c1.19,0.995,2.186,2.15,2.986,3.466s1.359,2.719,1.68,4.212c-0.32,0.071-0.862,0.195-1.626,0.373
		c-0.765,0.179-1.591,0.356-2.479,0.533c-0.889,0.179-1.742,0.356-2.559,0.533c-0.818,0.179-1.405,0.303-1.76,0.373
		c-0.285-1.279-0.872-2.327-1.76-3.146c-0.889-0.817-2.009-1.227-3.359-1.227c-1.458,0-2.631,0.383-3.52,1.146
		c-0.889,0.765-1.422,1.698-1.6,2.8c0.213,0.071,0.8,0.293,1.76,0.666s2.097,0.81,3.413,1.307c1.314,0.498,2.719,1.031,4.212,1.6
		c1.493,0.569,2.888,1.103,4.186,1.6c1.297,0.498,2.399,0.925,3.306,1.279c0.907,0.356,1.431,0.552,1.573,0.587
		c0.071,0.392,0.142,0.978,0.213,1.76c0.071,0.782,0.106,1.546,0.106,2.293c0,1.99-0.356,3.83-1.066,5.519
		c-0.711,1.688-1.706,3.146-2.986,4.372s-2.791,2.195-4.532,2.906C150.828,48.741,148.926,49.098,146.865,49.098z"/>
	<path fill="#383839" d="M171.659,48.244V21.478h-8.691v-8.745h26.554v8.745h-8.691v26.767H171.659z"/>
	<path fill="#383839" d="M210.103,49.098c-2.595,0-5.021-0.489-7.278-1.467c-2.258-0.978-4.23-2.301-5.918-3.973
		c-1.689-1.67-3.022-3.643-4-5.918c-0.979-2.274-1.467-4.692-1.467-7.252c0-2.595,0.488-5.021,1.467-7.278
		c0.978-2.257,2.301-4.229,3.973-5.919c1.67-1.688,3.643-3.021,5.918-3.999c2.275-0.977,4.693-1.466,7.252-1.466
		c2.595,0,5.021,0.489,7.278,1.466c2.257,0.979,4.229,2.312,5.919,3.999c1.688,1.689,3.021,3.662,3.999,5.919
		c0.978,2.258,1.466,4.684,1.466,7.278c0,2.56-0.488,4.978-1.466,7.252c-0.978,2.275-2.302,4.248-3.973,5.918
		c-1.671,1.672-3.644,2.995-5.919,3.973S212.662,49.098,210.103,49.098z M210.049,20.678c-1.358,0-2.619,0.258-3.781,0.772
		c-1.16,0.516-2.17,1.209-3.028,2.08s-1.538,1.901-2.037,3.093c-0.501,1.191-0.751,2.479-0.751,3.865s0.25,2.666,0.751,3.839
		c0.499,1.174,1.179,2.205,2.037,3.093c0.858,0.889,1.877,1.582,3.057,2.08s2.448,0.746,3.807,0.746s2.627-0.248,3.807-0.746
		s2.198-1.191,3.056-2.08c0.858-0.888,1.527-1.919,2.012-3.093c0.482-1.173,0.724-2.452,0.724-3.839s-0.251-2.674-0.751-3.865
		s-1.18-2.222-2.037-3.093c-0.858-0.871-1.877-1.564-3.057-2.08C212.676,20.936,211.407,20.678,210.049,20.678z"/>
	<path fill="#383839" d="M233.989,48.244V12.093c0.392,0.249,1.048,0.676,1.974,1.279c0.924,0.605,1.963,1.289,3.119,2.053
		c1.154,0.766,2.363,1.565,3.625,2.399c1.262,0.836,2.453,1.627,3.572,2.373c1.12,0.747,2.088,1.396,2.906,1.946
		c0.818,0.552,1.368,0.916,1.653,1.093c0.284-0.213,0.853-0.595,1.706-1.146s1.857-1.209,3.013-1.974
		c1.155-0.764,2.382-1.572,3.679-2.426c1.298-0.854,2.533-1.653,3.706-2.399s2.194-1.413,3.066-2
		c0.87-0.586,1.466-0.986,1.786-1.199v36.151h-8.904V29.155c-0.32,0.213-0.872,0.569-1.653,1.066
		c-0.782,0.498-1.6,1.013-2.452,1.546c-0.854,0.533-1.662,1.04-2.427,1.521c-0.765,0.479-1.271,0.791-1.52,0.933
		c-0.285-0.178-0.8-0.507-1.546-0.986c-0.747-0.479-1.547-0.986-2.4-1.52c-0.853-0.533-1.662-1.04-2.426-1.52
		c-0.765-0.48-1.307-0.827-1.626-1.04v19.089H233.989z"/>
</g>
<g enable-background="new    ">
	<path fill="#383839" d="M294.827,48.244h-19.835V12.68h19.568c2.417,0,4.541,0.871,6.372,2.612c1.83,1.742,2.746,3.804,2.746,6.186
		c0,3.377-1.352,5.812-4.053,7.305c1.315,0.533,2.507,1.458,3.573,2.772c1.457,1.812,2.186,3.946,2.186,6.398
		c0,2.845-1.031,5.271-3.093,7.278C300.23,47.24,297.742,48.244,294.827,48.244z M293.921,27.716c1.6,0,2.95-0.568,4.052-1.706
		s1.653-2.488,1.653-4.053c0-1.528-0.56-2.844-1.679-3.945c-1.121-1.102-2.427-1.653-3.92-1.653h-15.303v11.357H293.921z
		 M294.773,44.512c1.777,0,3.307-0.667,4.586-2s1.92-2.905,1.92-4.719c0-1.848-0.641-3.412-1.92-4.692
		c-1.279-1.279-2.933-1.919-4.959-1.919h-15.676v13.33H294.773z"/>
	<path fill="#383839" d="M310.877,48.244V12.68h3.785v35.564H310.877z"/>
	<path fill="#383839" d="M346.334,16.358h-11.41v31.886h-3.84V16.358h-11.996V12.68h27.246V16.358z"/>
</g>
<rect x="4.966" y="7.466" fill="#383839" width="5.16" height="5.16"/>
<rect x="10.126" y="7.466" width="5.16" height="5.16"/>
<rect x="15.286" y="7.466" fill="#383839" width="5.16" height="5.16"/>
<rect x="20.446" y="7.466" fill="#4D4D4F" width="5.16" height="5.16"/>
<rect x="25.606" y="7.466" fill="#636466" width="5.16" height="5.16"/>
<rect x="30.767" y="7.466" fill="#58595B" width="5.16" height="5.16"/>
<rect x="35.927" y="7.466" fill="#696A6D" width="5.159" height="5.16"/>
<rect x="41.086" y="7.466" fill="#808285" width="5.16" height="5.16"/>
<rect x="46.246" y="7.466" fill="#58595B" width="5.16" height="5.16"/>
<rect x="4.966" y="12.626" fill="#464547" width="5.16" height="5.16"/>
<rect x="10.126" y="12.626" fill="#383839" width="5.16" height="5.16"/>
<rect x="30.767" y="33.266" fill="#A01E22" width="5.16" height="5.16"/>
<rect x="25.606" y="33.266" fill="#B02228" width="5.16" height="5.16"/>
<rect x="30.767" y="28.106" fill="#B9252B" width="5.16" height="5.16"/>
<rect x="25.606" y="28.106" fill="#982129" width="5.16" height="5.16"/>
<rect x="20.446" y="33.266" fill="#8A1C23" width="5.16" height="5.16"/>
<rect x="20.446" y="28.106" fill="#A01E22" width="5.16" height="5.16"/>
<rect x="30.767" y="22.946" fill="#B02228" width="5.16" height="5.16"/>
<rect x="25.606" y="22.946" fill="#A01E22" width="5.16" height="5.16"/>
<rect x="20.446" y="22.946" fill="#8A1C23" width="5.16" height="5.16"/>
<rect x="15.286" y="12.626" fill="#464547" width="5.16" height="5.16"/>
<rect x="20.446" y="12.626" fill="#414042" width="5.16" height="5.16"/>
<rect x="25.606" y="12.626" fill="#4F4F51" width="5.16" height="5.16"/>
<rect x="30.767" y="12.626" fill="#77787B" width="5.16" height="5.16"/>
<rect x="35.927" y="12.626" fill="#636466" width="5.159" height="5.16"/>
<rect x="41.086" y="12.626" fill="#939598" width="5.16" height="5.16"/>
<rect x="46.246" y="12.626" fill="#6D6E71" width="5.16" height="5.16"/>
<rect x="41.086" y="17.787" fill="#808285" width="5.16" height="5.16"/>
<rect x="46.246" y="17.787" fill="#939598" width="5.16" height="5.16"/>
<rect x="15.286" y="43.586" fill="#6D6E71" width="5.16" height="5.16"/>
<rect x="20.446" y="43.586" fill="#464547" width="5.16" height="5.16"/>
<rect x="25.606" y="43.586" fill="#545456" width="5.16" height="5.16"/>
<rect x="30.767" y="43.586" fill="#696A6D" width="5.16" height="5.16"/>
<rect x="35.927" y="43.586" fill="#6D6E71" width="5.159" height="5.16"/>
<rect x="41.086" y="43.586" fill="#808285" width="5.16" height="5.16"/>
<rect x="46.246" y="43.586" fill="#939598" width="5.16" height="5.16"/>
<rect x="41.086" y="38.427" fill="#939598" width="5.16" height="5.159"/>
<rect x="46.246" y="38.427" fill="#808285" width="5.16" height="5.159"/>
<rect x="41.086" y="33.268" fill="#58595B" width="5.16" height="5.159"/>
<rect x="46.246" y="33.268" fill="#6D6E71" width="5.16" height="5.159"/>
<rect x="41.086" y="22.946" fill="#6D6E71" width="5.16" height="5.16"/>
<rect x="46.246" y="22.946" fill="#8A8C8E" width="5.16" height="5.16"/>
<rect x="15.286" y="48.746" fill="#464547" width="5.16" height="5.161"/>
<rect x="20.446" y="48.746" fill="#58595B" width="5.16" height="5.161"/>
<rect x="25.606" y="48.746" fill="#77787B" width="5.16" height="5.161"/>
<rect x="30.767" y="48.746" fill="#545456" width="5.16" height="5.161"/>
<rect x="35.927" y="48.746" fill="#77787B" width="5.159" height="5.161"/>
<rect x="41.086" y="48.746" fill="#58595B" width="5.16" height="5.161"/>
<rect x="46.246" y="48.746" fill="#6D6E71" width="5.16" height="5.161"/>
<rect x="4.966" y="48.746" width="5.16" height="5.161"/>
<rect x="4.966" y="38.427" fill="#383839" width="5.16" height="5.159"/>
<rect x="4.966" y="43.586" fill="#333334" width="5.16" height="5.16"/>
<rect x="4.966" y="33.268" fill="#464547" width="5.16" height="5.159"/>
<rect x="4.966" y="28.106" fill="#282829" width="5.16" height="5.16"/>
<rect x="4.966" y="22.946" fill="#383839" width="5.16" height="5.16"/>
<rect x="4.966" y="17.787" width="5.16" height="5.16"/>
<rect x="10.126" y="48.746" fill="#383839" width="5.16" height="5.161"/>
<rect x="10.126" y="43.586" fill="#464547" width="5.16" height="5.16"/>
<rect x="10.126" y="38.427" fill="#282829" width="5.16" height="5.159"/>
<rect x="10.126" y="33.268" fill="#414042" width="5.16" height="5.159"/>
<rect x="10.126" y="28.106" fill="#383839" width="5.16" height="5.16"/>
<rect x="10.126" y="22.946" fill="#464547" width="5.16" height="5.16"/>
<rect x="10.126" y="17.787" fill="#414042" width="5.16" height="5.16"/>
</svg>
