<?xml version="1.0" encoding="utf-8"?>
<!-- Generator: Adobe Illustrator 16.0.0, SVG Export Plug-In . SVG Version: 6.00 Build 0)  -->
<!DOCTYPE svg PUBLIC "-//W3C//DTD SVG 1.1//EN" "http://www.w3.org/Graphics/SVG/1.1/DTD/svg11.dtd">
<svg version="1.1" id="Layer_1" xmlns="http://www.w3.org/2000/svg" xmlns:xlink="http://www.w3.org/1999/xlink" x="0px" y="0px"
	 width="145px" height="105px" viewBox="0 0 145 105" enable-background="new 0 0 145 105" xml:space="preserve">
<g>
	<path fill="#282829" d="M120.552,49.598L77.056,6.101c-2.504-2.504-6.565-2.504-9.073,0l-9.03,9.034l11.456,11.456
		c2.664-0.898,5.717-0.296,7.839,1.826c2.133,2.137,2.732,5.215,1.809,7.886l11.043,11.045c2.671-0.92,5.754-0.326,7.888,1.811
		c2.982,2.982,2.982,7.814,0,10.795c-2.983,2.984-7.814,2.984-10.799,0c-2.243-2.244-2.798-5.537-1.661-8.301L76.229,41.354
		l-0.002,27.1c0.729,0.361,1.414,0.84,2.021,1.443c2.981,2.98,2.981,7.812,0,10.799c-2.982,2.98-7.816,2.98-10.796,0
		c-2.981-2.986-3.226-7.818-0.245-10.799c0.737-0.736,1.464-1.293,2.253-1.664V40.879c-0.789-0.371-1.516-0.924-2.253-1.664
		c-2.259-2.26-2.681-5.573-1.522-8.348L54.452,19.572L24.658,49.395c-2.506,2.508-2.491,6.57,0.015,9.076l43.505,43.494
		c2.504,2.506,6.569,2.506,9.077,0l43.294-43.291C123.055,56.166,123.058,52.102,120.552,49.598L120.552,49.598z"/>
</g>
</svg>
