<?xml version="1.0" encoding="utf-8"?>
<!-- Generator: Adobe Illustrator 16.0.0, SVG Export Plug-In . SVG Version: 6.00 Build 0)  -->
<!DOCTYPE svg PUBLIC "-//W3C//DTD SVG 1.1//EN" "http://www.w3.org/Graphics/SVG/1.1/DTD/svg11.dtd">
<svg version="1.1" id="Layer_1" xmlns="http://www.w3.org/2000/svg" xmlns:xlink="http://www.w3.org/1999/xlink" x="0px" y="0px"
	 width="145px" height="105px" viewBox="0 0 145 105" enable-background="new 0 0 145 105" xml:space="preserve">
<path fill="#A01E22" d="M781.569,51.651c0-0.344,0.056-0.688,0.056-1.032c0-18.427-15.13-33.587-33.474-33.587
	c-13.211,0-24.589,7.995-29.919,19.2c-2.321-1.175-4.901-1.834-7.681-1.834c-8.483,0-15.505,6.792-16.88,14.903
	c-10.088,3.497-17.367,12.667-17.367,24.017c0,14.271,11.491,26.251,25.679,26.251h79.212c12.897,0,23.5-11.148,23.5-24.16
	C804.695,62.341,794.551,51.68,781.569,51.651z M741.82,90.056c-12.983,0-23.548-10.563-23.548-23.547
	c0-12.985,10.564-23.548,23.548-23.548v-6.947l13.442,10.081L741.82,56.178v-6.947c-9.527,0-17.278,7.75-17.278,17.278
	c0,9.526,7.751,17.277,17.278,17.277S759.1,76.036,759.1,66.509h6.269C765.368,79.493,754.804,90.056,741.82,90.056z"/>
<g>
	<path fill="#A01E22" d="M620.976,49.44L577.479,5.943c-2.504-2.504-6.565-2.504-9.073,0l-9.03,9.034l11.456,11.456
		c2.664-0.898,5.717-0.296,7.839,1.826c2.133,2.137,2.732,5.215,1.809,7.886l11.043,11.045c2.671-0.92,5.754-0.326,7.888,1.811
		c2.982,2.982,2.982,7.814,0,10.795c-2.983,2.984-7.814,2.984-10.799,0c-2.243-2.244-2.798-5.537-1.661-8.301l-10.298-10.299
		l-0.002,27.1c0.729,0.361,1.414,0.84,2.021,1.443c2.981,2.98,2.981,7.812,0,10.799c-2.982,2.98-7.816,2.98-10.796,0
		c-2.981-2.986-3.226-7.818-0.245-10.799c0.737-0.736,1.464-1.293,2.253-1.664V40.721c-0.789-0.371-1.516-0.924-2.253-1.664
		c-2.259-2.26-2.681-5.573-1.522-8.348l-11.231-11.295l-29.794,29.822c-2.506,2.508-2.491,6.57,0.015,9.076l43.505,43.494
		c2.504,2.506,6.569,2.506,9.077,0l43.294-43.291C623.479,56.008,623.481,51.944,620.976,49.44L620.976,49.44z"/>
</g>
<g>
	<path fill="#A01E22" d="M364.108,9.938v89.631h89.631V9.938H364.108z M411.519,86.313c-1.323,2.688-3.849,4.454-6.775,5.307
		c-4.496,1.033-8.797,0.443-11.997-1.477c-2.14-1.313-3.813-3.336-4.948-5.664l6.826-4.181c0.06,0.024,0.239,0.348,0.479,0.768
		c0.87,1.458,1.622,2.491,3.098,3.216c1.449,0.494,4.631,0.811,5.861-1.74c0.751-1.299,0.513-5.47,0.513-10.086
		c-0.001-7.252,0.033-14.475,0.033-21.646h8.395c0,7.888,0.044,15.358,0,23.056C413.021,78.583,413.431,82.789,411.519,86.313z
		 M446.349,83.941c-2.919,9.982-19.189,10.307-25.692,3.711c-1.374-1.552-2.235-2.363-3.055-4.155
		c3.456-1.987,3.456-1.987,6.818-3.933c1.827,2.808,3.515,4.351,6.553,4.982c4.122,0.504,8.269-0.912,7.339-5.29
		c-0.956-3.575-8.439-4.444-13.533-8.269c-5.171-3.473-6.382-11.91-2.133-16.731c1.416-1.784,3.831-3.114,6.365-3.754l2.644-0.343
		c5.078-0.102,8.251,1.239,10.581,3.841c0.648,0.656,1.178,1.364,2.167,2.9c-2.704,1.723-2.695,1.706-6.571,4.215
		c-0.826-1.783-2.199-2.9-3.65-3.388c-2.254-0.682-5.095,0.06-5.684,2.44c-0.205,0.733-0.162,1.416,0.162,2.627
		c0.912,2.083,3.978,2.988,6.725,4.25c7.91,3.208,10.581,6.648,11.237,10.742C447.254,81.313,446.468,83.599,446.349,83.941
		L446.349,83.941z"/>
</g>
<g>
	<path fill="#A01E22" d="M223.647,91.401c18.473,2.521,36.619,4.999,55.125,7.524c-6.306-10.496-12.447-20.723-18.64-31.034
		L223.647,91.401L223.647,91.401z M283.985,33.301c-1.629,2.445-3.259,4.891-4.886,7.336c-5.586,8.402-11.17,16.806-16.75,25.213
		c-0.31,0.467-0.714,0.839-0.275,1.561c5.392,8.903,10.741,17.832,16.103,26.754c0.847,1.409,1.702,2.812,2.797,4.164
		c1.084-21.652,2.168-43.307,3.252-64.959L283.985,33.301L283.985,33.301z M210.385,61.06c0.252,0.239,0.882,0.378,1.175,0.233
		c5.172-2.541,10.376-5.026,15.434-7.777c1.65-0.895,2.918-2.504,4.34-3.807c4.705-4.315,9.404-8.641,14.101-12.966
		c0.288-0.265,0.628-0.522,0.799-0.858c1.687-3.296,3.344-6.609,5.061-10.02c-2.047-0.771-3.987-1.522-5.952-2.206
		c-0.267-0.095-0.686,0.091-0.975,0.251c-4.547,2.54-9.18,4.947-13.583,7.716c-2.203,1.388-3.998,3.429-5.948,5.208
		c-3.144,2.869-6.283,5.745-9.381,8.664c-0.821,0.774-1.57,1.661-2.211,2.593c-2.118,3.084-4.174,6.215-6.324,9.433
		C208.125,58.766,209.216,59.955,210.385,61.06L210.385,61.06z M229.286,56.844c-2.572,10.868-5.129,21.674-7.771,32.836
		c12.391-7.983,24.496-15.783,36.521-23.53C248.466,63.051,238.928,59.964,229.286,56.844L229.286,56.844z M280.827,33.406
		c-10.469,1.75-20.688,3.457-31.039,5.187c3.525,8.575,6.979,16.98,10.533,25.623C267.196,53.884,273.934,43.761,280.827,33.406z
		 M229.718,54.62c9.428,3.061,18.667,6.061,28.175,9.147c-3.531-8.603-6.941-16.902-10.422-25.38
		C241.543,43.806,235.703,49.147,229.718,54.62L229.718,54.62z M210.774,67.399c-3.343,7.992-6.573,15.712-9.861,23.572
		c6.32-0.188,12.445-0.368,18.782-0.556C216.72,82.741,213.805,75.216,210.774,67.399z M219.917,84.951l0.232-0.051
		c2.255-9.376,4.543-18.688,6.845-28.432c-5.136,2.67-10.035,5.216-15.068,7.832C214.496,70.976,217.234,78.017,219.917,84.951
		L219.917,84.951z M277.038,31.886c-3-0.795-5.998-1.591-8.998-2.381c-4.312-1.134-8.629-2.254-12.939-3.398
		c-0.539-0.143-0.928-0.235-1.245,0.412c-1.523,3.123-3.094,6.22-4.641,9.328c-0.048,0.097-0.038,0.222-0.076,0.463
		c9.34-1.416,18.617-2.821,27.893-4.228L277.038,31.886z M259.639,24.788l24.443,6.763c-1.402-3.995-2.702-7.699-4.039-11.508
		l-20.369,4.517L259.639,24.788L259.639,24.788z M221.989,93.201c-3.026-0.348-6.135-0.028-9.206,0.026
		c-2.521,0.042-5.044,0.139-7.566,0.217c-0.259,0.009-0.518,0.061-0.777,0.34c20.853,1.929,41.704,3.855,62.555,5.785l0.042-0.279
		c-6.685-0.913-13.368-1.826-20.053-2.736C238.654,95.415,230.339,94.165,221.989,93.201L221.989,93.201z M201.326,83.776
		c2.687-6.233,5.363-12.473,8.061-18.702c0.27-0.625,0.248-1.05-0.28-1.552c-1.129-1.076-2.177-2.232-3.41-3.516
		c-1.668,8.232-3.293,16.26-4.921,24.289l0.182,0.084C201.082,84.18,201.233,83.992,201.326,83.776z M254.285,23.141
		c4.532-1.168,9.127-2.083,13.698-3.103c0.297-0.066,0.586-0.163,0.877-0.247l-0.046-0.224c-6.437,0.866-12.873,1.733-19.635,2.643
		C251.022,23.014,252.443,23.618,254.285,23.141L254.285,23.141z"/>
</g>
<g>
	<path fill="#A01E22" d="M32.914,9.913l7.205,80.726l32.333,8.931l32.422-8.92l7.212-80.736H32.914z M97.1,29.025l-0.451,5.166
		l-0.199,2.368H58.521l0.905,10.082h36.121l-0.242,2.5l-2.329,26.012l-0.17,1.635L72.5,82.368v0.002l-0.024,0.013l-20.292-5.346
		l-1.377-15.271h9.95l0.704,7.863l11.009,2.938H72.5v-0.394l11.059-2.79l1.154-12.66h-34.35l-2.437-27.45l-0.237-2.796h49.648
		L97.1,29.025z"/>
</g>
<path fill="#A01E22" d="M947.504,10.429h-82.009c-1.969,0-3.565,1.597-3.565,3.565v82.008c0,1.969,1.597,3.566,3.565,3.566h82.009
	c1.969,0,3.565-1.598,3.565-3.566V13.995C951.069,12.026,949.473,10.429,947.504,10.429z M942.552,86.469
	c0,0-5.719-7.676-11.136-6.623c-5.417,1.055-16.554,7.072-23.023,6.623c-6.471-0.453-25.583-2.107-38.073-22.121
	c0,0,22.422,15.348,40.18,4.213c0,0-27.389-24.83-33.558-36.267c0,0,26.484,20.616,27.989,20.766c0,0-15.801-18.81-18.511-23.624
	c0,0,28.143,24.68,34.463,27.236c0,0,7.373-14.295-6.17-33.708c0,0,28.742,15.049,21.367,44.392
	C936.08,67.356,943.756,76.084,942.552,86.469z"/>
</svg>
