<?xml version="1.0" encoding="utf-8"?>
<!-- Generator: Adobe Illustrator 16.0.0, SVG Export Plug-In . SVG Version: 6.00 Build 0)  -->
<!DOCTYPE svg PUBLIC "-//W3C//DTD SVG 1.1//EN" "http://www.w3.org/Graphics/SVG/1.1/DTD/svg11.dtd">
<svg version="1.1" id="Layer_1" xmlns="http://www.w3.org/2000/svg" xmlns:xlink="http://www.w3.org/1999/xlink" x="0px" y="0px"
	 width="145px" height="105px" viewBox="0 0 145 105" enable-background="new 0 0 145 105" xml:space="preserve">
<g>
	<path fill="#A01E22" d="M53.647,91.401c18.473,2.521,36.619,4.999,55.125,7.524c-6.306-10.496-12.447-20.723-18.64-31.034
		L53.647,91.401L53.647,91.401z M113.985,33.301c-1.629,2.445-3.259,4.891-4.886,7.336c-5.586,8.402-11.17,16.806-16.75,25.213
		c-0.31,0.467-0.714,0.839-0.275,1.561c5.392,8.903,10.741,17.832,16.103,26.754c0.847,1.409,1.702,2.812,2.797,4.164
		c1.084-21.652,2.168-43.307,3.252-64.959L113.985,33.301L113.985,33.301z M40.385,61.06c0.252,0.239,0.882,0.378,1.175,0.233
		c5.172-2.541,10.376-5.026,15.434-7.777c1.65-0.895,2.918-2.504,4.34-3.807c4.705-4.315,9.404-8.641,14.101-12.966
		c0.288-0.265,0.628-0.522,0.799-0.858c1.687-3.296,3.344-6.609,5.061-10.02c-2.047-0.771-3.987-1.522-5.952-2.206
		c-0.267-0.095-0.686,0.091-0.975,0.251c-4.547,2.54-9.18,4.947-13.583,7.716c-2.203,1.388-3.998,3.429-5.948,5.208
		c-3.144,2.869-6.283,5.745-9.381,8.664c-0.821,0.774-1.57,1.661-2.211,2.593c-2.118,3.084-4.174,6.215-6.324,9.433
		C38.125,58.766,39.216,59.955,40.385,61.06L40.385,61.06z M59.286,56.844c-2.572,10.868-5.129,21.674-7.771,32.836
		c12.391-7.983,24.496-15.783,36.521-23.53C78.466,63.051,68.928,59.964,59.286,56.844L59.286,56.844z M110.827,33.406
		c-10.469,1.75-20.688,3.457-31.039,5.187c3.525,8.575,6.979,16.98,10.533,25.623C97.196,53.884,103.934,43.761,110.827,33.406z
		 M59.718,54.62c9.428,3.061,18.667,6.061,28.175,9.147c-3.531-8.603-6.941-16.902-10.422-25.38
		C71.543,43.806,65.703,49.147,59.718,54.62L59.718,54.62z M40.774,67.399c-3.343,7.992-6.573,15.712-9.861,23.572
		c6.32-0.188,12.445-0.368,18.782-0.556C46.72,82.741,43.805,75.216,40.774,67.399z M49.917,84.951L50.15,84.9
		c2.255-9.376,4.543-18.688,6.845-28.432c-5.136,2.67-10.035,5.216-15.068,7.832C44.496,70.976,47.234,78.017,49.917,84.951
		L49.917,84.951z M107.038,31.886c-3-0.795-5.998-1.591-8.998-2.381c-4.312-1.134-8.629-2.254-12.939-3.398
		c-0.539-0.143-0.928-0.235-1.245,0.412c-1.523,3.123-3.094,6.22-4.641,9.328c-0.048,0.097-0.038,0.222-0.076,0.463
		c9.34-1.416,18.617-2.821,27.893-4.228L107.038,31.886z M89.639,24.788l24.443,6.763c-1.402-3.995-2.702-7.699-4.039-11.508
		l-20.369,4.517L89.639,24.788L89.639,24.788z M51.989,93.201c-3.026-0.348-6.135-0.028-9.206,0.026
		c-2.521,0.042-5.044,0.139-7.566,0.217c-0.259,0.009-0.518,0.061-0.777,0.34c20.853,1.929,41.704,3.855,62.555,5.785l0.042-0.279
		c-6.685-0.913-13.368-1.826-20.053-2.736C68.654,95.415,60.339,94.165,51.989,93.201L51.989,93.201z M31.326,83.776
		c2.687-6.233,5.363-12.473,8.061-18.702c0.27-0.625,0.248-1.05-0.28-1.552c-1.129-1.076-2.177-2.232-3.41-3.516
		c-1.668,8.232-3.293,16.26-4.921,24.289l0.182,0.084C31.082,84.18,31.233,83.992,31.326,83.776z M84.285,23.141
		c4.532-1.168,9.127-2.083,13.698-3.103c0.297-0.066,0.586-0.163,0.877-0.247l-0.046-0.224c-6.437,0.866-12.873,1.733-19.635,2.643
		C81.022,23.014,82.443,23.618,84.285,23.141L84.285,23.141z"/>
</g>
</svg>
