<?xml version="1.0" encoding="utf-8"?>
<!-- Generator: Adobe Illustrator 16.0.0, SVG Export Plug-In . SVG Version: 6.00 Build 0)  -->
<!DOCTYPE svg PUBLIC "-//W3C//DTD SVG 1.1//EN" "http://www.w3.org/Graphics/SVG/1.1/DTD/svg11.dtd">
<svg version="1.1" id="Layer_1" xmlns="http://www.w3.org/2000/svg" xmlns:xlink="http://www.w3.org/1999/xlink" x="0px" y="0px"
	 width="145px" height="105px" viewBox="0 0 145 105" enable-background="new 0 0 145 105" xml:space="preserve">
<g>
	<path fill="#A01E22" d="M27.685,9.938v89.631h89.631V9.938H27.685z M75.095,86.313c-1.323,2.688-3.849,4.454-6.775,5.307
		c-4.496,1.033-8.797,0.443-11.997-1.477c-2.14-1.313-3.813-3.336-4.948-5.664l6.826-4.181c0.06,0.024,0.239,0.348,0.479,0.768
		c0.87,1.458,1.622,2.491,3.098,3.216c1.449,0.494,4.631,0.811,5.861-1.74c0.751-1.299,0.513-5.47,0.513-10.086
		c-0.001-7.252,0.033-14.475,0.033-21.646h8.395c0,7.888,0.044,15.358,0,23.056C76.597,78.583,77.007,82.789,75.095,86.313z
		 M109.925,83.941c-2.919,9.982-19.189,10.307-25.692,3.711c-1.374-1.552-2.235-2.363-3.055-4.155
		c3.456-1.987,3.456-1.987,6.818-3.933c1.827,2.808,3.515,4.351,6.553,4.982c4.122,0.504,8.269-0.912,7.339-5.29
		c-0.956-3.575-8.439-4.444-13.533-8.269c-5.171-3.473-6.382-11.91-2.133-16.731c1.416-1.784,3.831-3.114,6.365-3.754l2.644-0.343
		c5.078-0.102,8.251,1.239,10.581,3.841c0.648,0.656,1.178,1.364,2.167,2.9c-2.704,1.723-2.695,1.706-6.571,4.215
		c-0.826-1.783-2.199-2.9-3.65-3.388c-2.254-0.682-5.095,0.06-5.684,2.44c-0.205,0.733-0.162,1.416,0.162,2.627
		c0.912,2.083,3.978,2.988,6.725,4.25c7.91,3.208,10.581,6.648,11.237,10.742C110.83,81.313,110.044,83.599,109.925,83.941
		L109.925,83.941z"/>
</g>
</svg>
