<?xml version="1.0" encoding="utf-8"?>
<!-- Generator: Adobe Illustrator 16.0.0, SVG Export Plug-In . SVG Version: 6.00 Build 0)  -->
<!DOCTYPE svg PUBLIC "-//W3C//DTD SVG 1.1//EN" "http://www.w3.org/Graphics/SVG/1.1/DTD/svg11.dtd">
<svg version="1.1" id="Layer_1" xmlns="http://www.w3.org/2000/svg" xmlns:xlink="http://www.w3.org/1999/xlink" x="0px" y="0px"
	 width="145px" height="105px" viewBox="0 0 145 105" enable-background="new 0 0 145 105" xml:space="preserve">
<path fill="#A01E22" d="M113.504,10.429H31.495c-1.969,0-3.565,1.597-3.565,3.565v82.008c0,1.969,1.597,3.566,3.565,3.566h82.009
	c1.969,0,3.565-1.598,3.565-3.566V13.995C117.069,12.026,115.473,10.429,113.504,10.429z M108.552,86.469
	c0,0-5.719-7.676-11.136-6.623c-5.417,1.055-16.554,7.072-23.023,6.623c-6.471-0.453-25.583-2.107-38.073-22.121
	c0,0,22.422,15.348,40.18,4.213c0,0-27.389-24.83-33.558-36.267c0,0,26.484,20.616,27.989,20.766c0,0-15.801-18.81-18.511-23.624
	c0,0,28.143,24.68,34.463,27.236c0,0,7.373-14.295-6.17-33.708c0,0,28.742,15.049,21.367,44.392
	C102.08,67.356,109.756,76.084,108.552,86.469z"/>
</svg>
